<?xml version="1.0" encoding="UTF-8"?>
<svg version="1.1" xmlns="http://www.w3.org/2000/svg" width="1200" height="1200">
<path d="M0 0 C2.46414131 -0.00216008 4.92823518 -0.00861608 7.3923645 -0.01649165 C16.05751634 -0.04411847 24.72253142 -0.05651517 33.38772583 -0.05413699 C41.35156614 -0.05234535 49.31478988 -0.08382302 57.27847481 -0.13136798 C64.20425206 -0.17118047 71.12983303 -0.18666439 78.05572319 -0.18477076 C82.15251353 -0.18402171 86.24875647 -0.19165245 90.34542847 -0.22430491 C112.80655104 -0.39087454 134.04326302 1.7995562 156.08535385 6.11735392 C158.07862701 6.50528402 160.07354752 6.88317816 162.06939697 7.25761342 C244.64769524 22.75367983 324.78587042 57.77766687 448.40042114 152.08770871 C449.81667703 153.37294534 451.2384457 154.65297388 452.69558716 155.89166379 C458.90157898 161.18450797 464.63500321 166.92464237 470.38796997 172.6987927 C472.11952439 174.43570721 473.85636098 176.1672101 475.59378052 177.89825559 C481.297459 183.59851227 486.83933219 189.35057564 492.06057739 195.50177121 C493.51503256 197.10945494 494.97278634 198.71416836 496.43557739 200.31427121 C504.54650603 209.31575789 512.01468401 218.85794253 519.44290161 228.42462277 C520.57054766 229.87255706 521.70274227 231.31695552 522.83840942 232.75860715 C580.78750331 306.38627559 619.67506365 396.83365177 644.06057739 549.50177121 C644.16515259 550.67522092 644.26972778 551.84867063 644.37747192 553.05767941 C645.42975274 567.07334462 645.3064396 581.1421925 645.31057739 595.18927121 C645.31101925 595.87690675 645.31146111 596.56454228 645.31191635 597.27301526 C645.31949458 619.8025092 644.77761553 642.11583927 642.06057739 664.50177121 C641.93329254 665.57322385 641.93329254 665.57322385 641.80343628 666.66632199 C639.1162067 689.18239841 635.1257118 711.40190921 630.06057739 733.50177121 C629.91124756 734.15343259 629.76191772 734.80509397 629.60806274 735.47650266 C616.237714 793.39043914 593.26372429 849.72341433 562.74807739 900.67364621 C561.14723724 903.35653572 559.56920193 906.05140091 557.99807739 908.75177121 C551.42287738 919.98721215 544.25660212 930.68592389 536.66653442 941.25958371 C535.21180282 943.29063495 533.7713688 945.33067048 532.33792114 947.37677121 C526.52782358 955.64668418 520.39055558 963.62398657 514.06057739 971.50177121 C513.31034302 972.43634152 512.56010864 973.37091184 511.78713989 974.33380246 C509.5647996 977.0736191 507.32012775 979.79255909 505.06057739 982.50177121 C504.62696899 983.0217468 504.1933606 983.54172238 503.74661255 984.07745481 C491.43694568 998.78223486 478.15755712 1012.49331296 464.62307739 1026.06427121 C464.06086487 1026.62916257 463.49865234 1027.19405393 462.91940308 1027.7760632 C456.81471966 1033.90281094 450.6765294 1039.92139185 444.06057739 1045.50177121 C442.97762864 1046.43951476 441.89556735 1047.37828438 440.81448364 1048.31817746 C420.97467819 1065.42603522 400.59347866 1081.25080129 378.81057739 1095.81427121 C378.18921906 1096.23065854 377.56786072 1096.64704587 376.92767334 1097.076051 C323.30344777 1132.93898574 264.16494467 1159.32323503 202.06057739 1176.50177121 C200.93909302 1176.81307981 199.81760864 1177.1243884 198.66213989 1177.44513059 C166.82963423 1186.14527345 134.48692105 1191.08862166 101.71682739 1194.55645871 C100.56253235 1194.67939298 100.56253235 1194.67939298 99.38491821 1194.80481076 C87.4083841 1196.0318443 75.49018992 1196.66306069 63.45120239 1196.70489621 C62.08377553 1196.71187504 60.71634898 1196.71891601 59.34892273 1196.72601438 C55.00280352 1196.74529339 50.65673471 1196.75019034 46.31057739 1196.75177121 C45.5706744 1196.75236035 44.83077141 1196.7529495 44.06844711 1196.75355649 C23.15106497 1196.76531788 2.41165093 1196.57942061 -18.37350464 1193.95050168 C-22.05700995 1193.48697417 -25.74393546 1193.08681249 -29.43551636 1192.69317746 C-73.15858241 1187.80202754 -115.44175362 1176.63640953 -156.90744019 1162.20691037 C-158.79191117 1161.55296068 -160.67903758 1160.90667675 -162.56637573 1160.26104856 C-207.87001971 1144.69203885 -251.61498379 1121.74602528 -290.93942261 1094.50177121 C-291.71092651 1093.97228879 -292.48243042 1093.44280637 -293.27731323 1092.89727902 C-304.12896115 1085.44570205 -314.69957226 1077.77292775 -324.93942261 1069.50177121 C-325.80438354 1068.81856809 -326.66934448 1068.13536496 -327.56051636 1067.43145871 C-337.12515935 1059.87156489 -346.42002921 1051.98265424 -355.42770386 1043.76739621 C-356.83042394 1042.50211216 -358.2392317 1041.24321819 -359.6697998 1040.00950742 C-364.45878273 1035.87916564 -369.01085438 1031.577343 -373.47457886 1027.09942746 C-374.156931 1026.41803205 -374.83928314 1025.73663663 -375.54231262 1025.03459287 C-376.97286697 1023.6047138 -378.40218028 1022.1735921 -379.83029175 1020.74127316 C-381.99641335 1018.5697941 -384.16782435 1016.40370796 -386.33981323 1014.23809934 C-387.73922248 1012.83802919 -389.13832144 1011.43764883 -390.53707886 1010.03692746 C-391.17581436 1009.40021619 -391.81454987 1008.76350492 -392.47264099 1008.10749936 C-396.82520456 1003.73260196 -400.91535595 999.178892 -404.93942261 994.50177121 C-405.98493843 993.31047282 -407.03161383 992.12018989 -408.08004761 990.93145871 C-414.76898901 983.3018351 -421.22260461 975.54643647 -427.39938354 967.4968884 C-429.07770023 965.32263285 -430.77789304 963.16645436 -432.47848511 961.00958371 C-449.85847086 938.79061252 -465.21718858 915.13706103 -478.93942261 890.50177121 C-479.75999146 889.03779904 -479.75999146 889.03779904 -480.59713745 887.54425168 C-510.58530401 833.85023298 -531.95015735 775.82813458 -543.93942261 715.50177121 C-544.1593689 714.39527219 -544.37931519 713.28877316 -544.60592651 712.14874387 C-547.24267225 698.6438855 -549.38169342 685.08571954 -551.12692261 671.43927121 C-551.28177124 670.24793576 -551.43661987 669.05660031 -551.59616089 667.82916379 C-554.40724952 644.80668439 -555.31972121 621.78435238 -555.25748062 598.60694242 C-555.25182298 596.46403546 -555.24901347 594.32113648 -555.24639893 592.17822385 C-555.2085425 570.817693 -554.66151188 549.71049036 -551.93942261 528.50177121 C-551.77068087 527.11970391 -551.60273085 525.73753975 -551.43551636 524.35528684 C-547.00068582 488.1092358 -540.02157185 452.3150633 -528.93942261 417.50177121 C-528.70890198 416.77687497 -528.47838135 416.05197873 -528.24087524 415.30511594 C-517.98862203 383.21855874 -505.04257927 352.59147586 -489.93942261 322.50177121 C-489.48470581 321.59507688 -489.02998901 320.68838254 -488.56149292 319.75421262 C-469.35848955 281.75411102 -445.19214708 245.72509 -417.44723511 213.44317746 C-415.0804926 210.66723181 -412.7856023 207.84613929 -410.50192261 205.00177121 C-403.66282758 196.60331341 -396.24476406 188.68860726 -388.51364136 181.10723996 C-386.74257556 179.30101653 -385.09191287 177.41690893 -383.43942261 175.50177121 C-378.32881466 169.59440924 -372.81301469 164.33468983 -366.89645386 159.24395871 C-365.0540558 157.60381993 -363.33953625 155.9006956 -361.62692261 154.12677121 C-357.92446384 150.35699502 -353.85465718 147.11361064 -349.74020386 143.80645871 C-347.17752659 141.69770057 -344.74368393 139.5113567 -342.31442261 137.25177121 C-335.94141067 131.45263239 -329.03690807 126.36446819 -322.15963745 121.18682981 C-320.02534885 119.56698596 -317.91107816 117.92468264 -315.80270386 116.27130246 C-292.28013251 97.87914543 -266.61999088 82.3566125 -240.51852417 67.92852902 C-238.94475918 67.05792295 -237.37320286 66.1832888 -235.80563354 65.3015759 C-180.91157738 34.43578033 -118.01747964 14.46949651 -56.07792664 4.20256162 C-53.38077814 3.75521637 -50.70709342 3.26129133 -48.02218628 2.73735166 C-32.11893398 -0.19561076 -16.10693284 0.00796621 0 0 Z M-80.93942261 88.50177121 C-82.10119019 88.77714719 -83.26295776 89.05252316 -84.45993042 89.33624387 C-120.41233762 97.9854278 -156.03135961 111.16320778 -188.77389526 128.37628293 C-191.37225559 129.72672725 -193.98966961 131.03691475 -196.60739136 132.34942746 C-211.60070925 139.92711233 -225.8508249 148.36009963 -239.93942261 157.50177121 C-240.57122437 157.9073425 -241.20302612 158.31291379 -241.85397339 158.73077512 C-256.67731357 168.24826169 -270.6867937 178.88017243 -284.24264526 190.10919309 C-286.50663266 191.96729152 -288.81691788 193.76388105 -291.12692261 195.56427121 C-296.1383951 199.55660392 -300.79934526 203.899886 -305.47067261 208.27911496 C-308.15609852 210.79557026 -310.89572512 213.24445116 -313.64645386 215.68927121 C-318.83127317 220.34565468 -323.79270296 225.20257842 -328.70870972 230.14068723 C-330.13279752 231.57016838 -331.56220304 232.99417632 -332.99215698 234.41778684 C-338.18382094 239.61668656 -343.1936721 244.89315698 -347.93942261 250.50177121 C-348.38729126 251.02263303 -348.83515991 251.54349484 -349.29660034 252.08014035 C-352.54451603 255.85891154 -355.74376864 259.67881843 -358.93942261 263.50177121 C-359.4584314 264.12116574 -359.97744019 264.74056027 -360.51217651 265.37872434 C-368.87519362 275.39498485 -376.59123727 285.72198979 -383.93942261 296.50177121 C-384.55188843 297.39396359 -385.16435425 298.28615598 -385.79537964 299.20538449 C-412.05745904 337.5552155 -433.47028092 378.6375165 -448.93942261 422.50177121 C-449.28988647 423.49273801 -449.64035034 424.48370481 -450.00143433 425.5047009 C-465.06104879 468.45480466 -473.63340896 514.14542598 -476.93942261 559.50177121 C-476.99726929 560.23959836 -477.05511597 560.97742551 -477.11471558 561.73761106 C-482.8494207 636.69718393 -470.64851208 714.48333635 -421.93942261 832.50177121 C-421.21287476 833.9587341 -421.21287476 833.9587341 -420.47164917 835.44513059 C-403.47899326 869.33963329 -382.31888201 901.743736 -357.52145386 930.48223996 C-355.09659817 933.31796379 -352.76344351 936.20832933 -350.43942261 939.12677121 C-346.42457739 944.06977957 -342.02824792 948.51095333 -337.48629761 952.95880246 C-335.40419455 955.03771211 -333.46375524 957.13424233 -331.56442261 959.37677121 C-324.71114733 967.38602063 -317.04425834 974.8993426 -309.00582886 981.71270871 C-306.89663258 983.53881815 -304.86073422 985.43347607 -302.82516479 987.34088254 C-296.97803514 992.80154224 -290.88731273 997.81444293 -284.55270386 1002.69708371 C-282.1451506 1004.55324428 -279.77077129 1006.44153731 -277.41989136 1008.36895871 C-231.52107312 1045.95218288 -177.69401424 1072.98254615 -121.93942261 1092.50177121 C-120.50445435 1093.00619748 -120.50445435 1093.00619748 -119.04049683 1093.52081418 C-89.83209077 1103.65368037 -59.46021959 1109.9329285 -28.93942261 1114.50177121 C-27.27846558 1114.752655 -27.27846558 1114.752655 -25.58395386 1115.00860715 C69.7562297 1129.05587754 169.72508552 1113.60570068 356.67385864 1016.79473996 C363.66058533 1011.59908575 370.38126309 1006.08400858 377.06057739 1000.50177121 C377.65241821 1000.00902707 378.24425903 999.51628293 378.85403442 999.00860715 C386.0653931 992.99610906 393.1349264 986.84245018 400.06057739 980.50177121 C400.56057251 980.04689328 401.06056763 979.59201535 401.57571411 979.12335324 C411.21141203 970.35483884 420.7909167 961.50795475 429.25979614 951.58380246 C431.43381941 949.07023543 433.68448227 946.63400892 435.93557739 944.18927121 C439.97534305 939.75464124 443.83814189 935.22082267 447.59963989 930.54864621 C449.38914489 928.3330686 451.19399806 926.13857447 453.02151489 923.95489621 C461.67211794 913.56088437 469.45072224 902.67398541 477.06057739 891.50177121 C477.52061157 890.83290891 477.98064575 890.1640466 478.45462036 889.47491574 C529.49857871 815.23794338 559.76628558 727.00464064 560.11151123 504.3053143 C543.9213434 417.13443479 507.0640608 333.58397453 444.45510864 259.12286496 C442.97764233 257.4053621 441.51793365 255.67386233 440.06057739 253.93927121 C434.7088665 247.59115849 429.23885301 241.53430099 423.29104614 235.72833371 C421.27840939 233.71922172 419.40715213 231.66256496 417.56057739 229.50177121 C411.6083125 222.56913328 405.05024963 216.20899074 398.11135864 210.27130246 C395.78491157 208.26391099 393.51865053 206.19710483 391.24807739 204.12677121 C385.99858885 199.39663846 380.57689133 194.9162817 375.06057739 190.50177121 C374.55075317 190.09233274 374.04092896 189.68289426 373.51565552 189.26104856 C357.0152701 176.03751446 339.97783623 163.73762643 322.06057739 152.50177121 C321.40670044 152.09120481 320.75282349 151.6806384 320.07913208 151.25763059 C308.6988556 144.16233341 296.90685427 137.77832808 285.06057739 131.50177121 C284.08250122 130.9806677 283.10442505 130.45956418 282.09671021 129.92266965 C209.33177231 91.44189604 126.51994876 73.38640393 -80.93942261 88.50177121 Z " fill="#020202" transform="translate(554.9394226074219,-0.5017712116241455)"/>
<path d="M0 0 C0.87755951 0.00060425 1.75511902 0.0012085 2.65927124 0.00183105 C17.78656153 0.02996496 32.76473145 0.50929282 47.8125 2.1875 C48.88081055 2.30577148 49.94912109 2.42404297 51.04980469 2.54589844 C109.79870257 9.40721103 163.78446001 32.20660905 206.8125 73.1875 C207.710896 74.04287354 207.710896 74.04287354 208.62744141 74.91552734 C217.51339384 83.43916223 225.5520489 92.2405662 232.8125 102.1875 C233.59109375 103.24453125 234.3696875 104.3015625 235.171875 105.390625 C251.63974722 128.4456461 262.84300499 154.2749085 267.8125 182.1875 C267.99127686 183.19006836 268.17005371 184.19263672 268.35424805 185.22558594 C269.90293798 194.83091275 270.17237382 204.23663273 270.125 213.9375 C270.12284485 214.73286163 270.1206897 215.52822327 270.11846924 216.34768677 C270.06829403 227.88493823 269.70273122 238.96429237 266.8125 250.1875 C266.61914062 250.9904248 266.42578125 251.79334961 266.2265625 252.62060547 C262.91926677 266.17898682 258.05730918 278.71997738 251.8125 291.1875 C251.49587402 291.82204102 251.17924805 292.45658203 250.85302734 293.11035156 C243.50941884 307.51191767 233.32058376 320.98133691 222.19140625 332.66796875 C220.28701847 334.68493118 218.47403202 336.73055815 216.66748047 338.83300781 C212.86306136 343.18932948 208.84827258 347.2963066 204.75390625 351.37890625 C204.0059227 352.12784653 203.25793915 352.8767868 202.48728943 353.64842224 C200.91617536 355.22021225 199.34381608 356.79075849 197.77026367 358.36010742 C195.38150154 360.74351304 192.99812554 363.13221068 190.61523438 365.52148438 C189.0784455 367.05761237 187.5413464 368.59343009 186.00390625 370.12890625 C185.30157364 370.83326309 184.59924103 371.53761993 183.87562561 372.26332092 C179.88425662 376.2361203 175.79456298 380.03671682 171.52667236 383.71144104 C169.31148594 385.61891886 167.15746114 387.59018001 165 389.5625 C160.62964316 393.51121445 156.10946921 397.2337721 151.53125 400.9375 C148.03341849 403.83225711 144.69464596 406.88339539 141.33984375 409.94140625 C138.74287607 412.24937598 136.07845987 414.44305863 133.375 416.625 C128.54012916 420.5379675 123.93297516 424.64987686 119.35546875 428.859375 C117.24182946 430.79444262 115.10590152 432.68958297 112.9375 434.5625 C84.08466829 459.74207593 68.98037208 482.40816848 64.8125 521.1875 C64.1525 534.7175 63.4925 548.2475 62.8125 562.1875 C19.9125 562.1875 -22.9875 562.1875 -67.1875 562.1875 C-67.1875 490.42305509 -65.45485852 435.98843641 -18.1875 383.1875 C-17.71876465 382.66236816 -17.2500293 382.13723633 -16.76708984 381.59619141 C-6.54924398 370.20960378 4.08661033 359.03302178 15.8125 349.1875 C16.85907928 348.290235 17.90454654 347.39167216 18.94921875 346.4921875 C28.63719186 338.15312113 38.33044814 329.81326145 48.25 321.75 C53.11252855 317.79344474 57.87019461 313.72563162 62.61645508 309.63134766 C66.17636609 306.56745383 69.7791978 303.57167281 73.4375 300.625 C78.48994506 296.52500408 83.26480009 292.17381996 88.03125 287.75 C90.32037222 285.6409211 92.63725164 283.58771288 95 281.5625 C112.64659217 266.14456646 125.32200945 246.68688434 128.8125 223.1875 C130.53617272 195.93920619 125.84002261 172.30850283 107.8125 151.1875 C107.23113281 150.62804687 106.64976562 150.06859375 106.05078125 149.4921875 C104.8125 148.1875 104.8125 148.1875 104.8125 146.1875 C104.21050781 145.919375 103.60851562 145.65125 102.98828125 145.375 C100.77298929 144.16593581 99.6441017 143.07164961 98 141.1875 C81.23911568 123.95903736 56.04361195 115.5546789 32.8125 112.1875 C31.86346802 112.0471936 31.86346802 112.0471936 30.89526367 111.90405273 C-5.59169548 107.13443141 -45.59150069 112.76595857 -75.67749023 135.04760742 C-78.23777332 137.02831918 -80.71811227 139.09509163 -83.1875 141.1875 C-84.41339844 142.18716797 -84.41339844 142.18716797 -85.6640625 143.20703125 C-112.1664789 165.56559904 -124.21013565 199.67481257 -132.57421875 232.14404297 C-133.1875 234.1875 -133.1875 234.1875 -134.1875 235.1875 C-147.89468116 235.12497685 -161.69608833 232.75869562 -175.265625 231.0625 C-177.77045278 230.75216127 -180.27531587 230.44210747 -182.7802124 230.13232422 C-188.66269174 229.40377623 -194.54464085 228.67105758 -200.42639327 227.93666649 C-205.78916212 227.26747129 -211.15258608 226.6036563 -216.51619458 225.94122887 C-222.34128208 225.22170013 -228.16592855 224.49865322 -233.99037933 223.77398682 C-236.46069568 223.46693146 -238.93111894 223.160735 -241.40164948 222.85540771 C-244.8387908 222.43007757 -248.27541037 222.00075993 -251.71191406 221.5703125 C-252.73419601 221.44456848 -253.75647797 221.31882446 -254.80973816 221.18927002 C-256.20960716 221.01267853 -256.20960716 221.01267853 -257.63775635 220.83251953 C-258.44880955 220.73149933 -259.25986275 220.63047913 -260.09549332 220.52639771 C-262.1875 220.1875 -262.1875 220.1875 -265.1875 219.1875 C-265.41060412 211.41222599 -264.83181995 204.04388411 -263.5625 196.375 C-263.38356201 195.29114014 -263.20462402 194.20728027 -263.02026367 193.09057617 C-257.77053162 162.7236107 -246.28297594 133.26469501 -228.1875 108.1875 C-227.49140625 107.218125 -226.7953125 106.24875 -226.078125 105.25 C-212.48008066 86.73351409 -196.62619745 69.00981323 -178.1875 55.1875 C-177.13618959 54.36135001 -176.085443 53.53448222 -175.03515625 52.70703125 C-158.08788173 39.59166915 -139.02052683 29.21350634 -119.1875 21.1875 C-118.41132324 20.87232422 -117.63514648 20.55714844 -116.83544922 20.23242188 C-79.67545994 5.37152865 -39.82890679 -0.05087247 0 0 Z " fill="#010101" transform="translate(610.1875,199.8125)"/>
<path d="M0 0 C43.89 0 87.78 0 133 0 C133 43.56 133 87.12 133 132 C89.11 132 45.22 132 0 132 C0 88.44 0 44.88 0 0 Z " fill="#010101" transform="translate(543,822)"/>
<path d="M0 0 C0.66 0.33 1.32 0.66 2 1 C-12.19 15.19 -26.38 29.38 -41 44 C-41.66 43.67 -42.32 43.34 -43 43 C-42.07058594 42.0821875 -41.14117187 41.164375 -40.18359375 40.21875 C-31.59284606 31.7070115 -31.59284606 31.7070115 -23.5 22.7265625 C-19.07369615 17.63170234 -14.10474924 13.17420784 -9 8.77734375 C-5.86211898 5.98879714 -2.92589677 3.00818762 0 0 Z " fill="#393939" transform="translate(197,150)"/>
</svg>
